<svg version="1.1" id="Layer_1" xmlns="http://www.w3.org/2000/svg" xmlns:xlink="http://www.w3.org/1999/xlink" x="0px" y="0px"
	 width="100%" viewBox="0 0 500 500" enable-background="new 0 0 500 500" xml:space="preserve">
<path fill="#000000" opacity="1.000000" stroke="none" 
	d="
M342.000000,501.000000 
	C228.000031,501.000000 114.500053,501.000000 1.000061,501.000000 
	C1.000041,334.333405 1.000041,167.666794 1.000020,1.000150 
	C167.666565,1.000100 334.333130,1.000100 500.999756,1.000050 
	C500.999847,167.666519 500.999847,334.333038 500.999939,500.999786 
	C448.166656,501.000000 395.333344,501.000000 342.000000,501.000000 
M162.378510,357.067749 
	C164.272324,375.536163 174.382233,388.401672 190.788391,395.807709 
	C232.094681,414.454193 272.569061,410.963715 310.438965,387.114960 
	C338.250519,369.600494 346.151611,334.758575 330.956329,307.696930 
	C324.565552,296.315399 314.408417,288.751343 304.576111,280.761932 
	C299.166016,276.365875 293.782379,271.804840 289.119873,266.654541 
	C283.185852,260.099670 282.977325,252.207245 288.393646,245.220093 
	C292.140656,240.386414 296.875702,236.329498 301.033112,231.800522 
	C306.640991,225.691391 313.277313,220.150101 317.429382,213.152878 
	C328.926178,193.777939 328.249084,173.619873 318.426392,153.217010 
	C333.379272,140.965561 348.474945,128.597122 364.204712,115.709160 
	C364.204712,120.154175 364.303589,123.638199 364.139343,127.109764 
	C364.094971,128.047974 363.436096,129.559494 362.747803,129.765091 
	C358.875488,130.921768 358.950653,133.925659 358.950775,136.991379 
	C358.952087,171.818253 358.930481,206.645157 358.966156,241.472000 
	C358.973236,248.374573 362.593445,251.784500 369.562134,251.752396 
	C376.132172,251.722107 379.898956,248.196793 379.908691,241.648865 
	C379.961060,206.488541 379.962128,171.327988 379.852051,136.167938 
	C379.846405,134.357407 379.074860,131.360886 377.936859,130.957825 
	C374.012329,129.567780 374.444275,126.732338 374.472473,123.774544 
	C374.509033,119.942612 374.678528,116.096237 374.416626,112.281769 
	C374.176331,108.781776 375.192719,106.359215 378.220581,104.342354 
	C382.145569,101.727943 385.723267,98.592194 390.089966,95.181358 
	C388.560059,95.004402 387.951263,94.872398 387.342438,94.872314 
	C331.352448,94.864799 275.362396,94.844025 219.372711,94.969299 
	C217.472733,94.973549 215.209717,96.030128 213.731659,97.308250 
	C180.716339,125.857620 147.785599,154.504837 114.855141,183.152237 
	C114.088875,183.818817 113.510109,184.700943 112.102867,186.351852 
	C135.734070,186.351852 158.270264,186.351852 181.062347,186.351852 
	C180.088440,206.366913 186.166412,222.980087 201.241318,235.805252 
	C216.235657,248.561890 233.971893,251.617798 253.731384,249.542007 
	C246.310669,265.116852 251.774979,277.722137 260.932098,289.730194 
	C256.024445,290.215607 251.879562,290.566559 247.749344,291.044403 
	C230.186432,293.076263 212.663727,295.730927 196.784470,303.935608 
	C175.738129,314.810089 161.844330,330.874329 162.378510,357.067749 
z"/>
<path fill="#FCFCFC" opacity="1.000000" stroke="none" 
	d="
M162.336960,356.618469 
	C161.844330,330.874329 175.738129,314.810089 196.784470,303.935608 
	C212.663727,295.730927 230.186432,293.076263 247.749344,291.044403 
	C251.879562,290.566559 256.024445,290.215607 260.932098,289.730194 
	C251.774979,277.722137 246.310669,265.116852 253.731384,249.542007 
	C233.971893,251.617798 216.235657,248.561890 201.241318,235.805252 
	C186.166412,222.980087 180.088440,206.366913 181.062347,186.351852 
	C158.270264,186.351852 135.734070,186.351852 112.102867,186.351852 
	C113.510109,184.700943 114.088875,183.818817 114.855141,183.152237 
	C147.785599,154.504837 180.716339,125.857620 213.731659,97.308250 
	C215.209717,96.030128 217.472733,94.973549 219.372711,94.969299 
	C275.362396,94.844025 331.352448,94.864799 387.342438,94.872314 
	C387.951263,94.872398 388.560059,95.004402 390.089966,95.181358 
	C385.723267,98.592194 382.145569,101.727943 378.220581,104.342354 
	C375.192719,106.359215 374.176331,108.781776 374.416626,112.281769 
	C374.678528,116.096237 374.509033,119.942612 374.472473,123.774544 
	C374.444275,126.732338 374.012329,129.567780 377.936859,130.957825 
	C379.074860,131.360886 379.846405,134.357407 379.852051,136.167938 
	C379.962128,171.327988 379.961060,206.488541 379.908691,241.648865 
	C379.898956,248.196793 376.132172,251.722107 369.562134,251.752396 
	C362.593445,251.784500 358.973236,248.374573 358.966156,241.472000 
	C358.930481,206.645157 358.952087,171.818253 358.950775,136.991379 
	C358.950653,133.925659 358.875488,130.921768 362.747803,129.765091 
	C363.436096,129.559494 364.094971,128.047974 364.139343,127.109764 
	C364.303589,123.638199 364.204712,120.154175 364.204712,115.709160 
	C348.474945,128.597122 333.379272,140.965561 318.426392,153.217010 
	C328.249084,173.619873 328.926178,193.777939 317.429382,213.152878 
	C313.277313,220.150101 306.640991,225.691391 301.033112,231.800522 
	C296.875702,236.329498 292.140656,240.386414 288.393646,245.220093 
	C282.977325,252.207245 283.185852,260.099670 289.119873,266.654541 
	C293.782379,271.804840 299.166016,276.365875 304.576111,280.761932 
	C314.408417,288.751343 324.565552,296.315399 330.956329,307.696930 
	C346.151611,334.758575 338.250519,369.600494 310.438965,387.114960 
	C272.569061,410.963715 232.094681,414.454193 190.788391,395.807709 
	C174.382233,388.401672 164.272324,375.536163 162.336960,356.618469 
M305.882416,374.340302 
	C316.460999,360.502930 316.079590,341.284943 305.387726,327.547028 
	C297.766937,317.755035 287.751801,310.882660 277.804688,303.931976 
	C275.107300,302.047150 271.529846,300.510040 268.315491,300.428864 
	C251.006195,299.991638 234.078171,302.344635 218.284973,309.906525 
	C204.547668,316.484039 195.835190,326.946289 195.018127,342.728241 
	C194.162369,359.257263 201.135681,371.800476 215.357925,380.019623 
	C233.485596,390.495697 253.136551,393.397369 273.667908,390.204285 
	C285.719849,388.329895 296.793243,384.045502 305.882416,374.340302 
M272.858429,144.648865 
	C263.365509,134.047791 251.679459,129.777374 237.792465,133.411133 
	C224.092010,136.996109 217.356552,147.406143 214.842758,160.336899 
	C213.409378,167.710159 213.360397,175.598022 214.132339,183.105667 
	C215.986237,201.135941 222.511002,217.342209 236.031387,230.005722 
	C255.707413,248.434769 286.688721,239.486191 291.800446,213.133896 
	C296.688385,187.935104 289.737579,165.052933 272.858429,144.648865 
z"/>
<path fill="#020202" opacity="1.000000" stroke="none" 
	d="
M305.650391,374.611816 
	C296.793243,384.045502 285.719849,388.329895 273.667908,390.204285 
	C253.136551,393.397369 233.485596,390.495697 215.357925,380.019623 
	C201.135681,371.800476 194.162369,359.257263 195.018127,342.728241 
	C195.835190,326.946289 204.547668,316.484039 218.284973,309.906525 
	C234.078171,302.344635 251.006195,299.991638 268.315491,300.428864 
	C271.529846,300.510040 275.107300,302.047150 277.804688,303.931976 
	C287.751801,310.882660 297.766937,317.755035 305.387726,327.547028 
	C316.079590,341.284943 316.460999,360.502930 305.650391,374.611816 
z"/>
<path fill="#020202" opacity="1.000000" stroke="none" 
	d="
M273.088013,144.921387 
	C289.737579,165.052933 296.688385,187.935104 291.800446,213.133896 
	C286.688721,239.486191 255.707413,248.434769 236.031387,230.005722 
	C222.511002,217.342209 215.986237,201.135941 214.132339,183.105667 
	C213.360397,175.598022 213.409378,167.710159 214.842758,160.336899 
	C217.356552,147.406143 224.092010,136.996109 237.792465,133.411133 
	C251.679459,129.777374 263.365509,134.047791 273.088013,144.921387 
z"/>
</svg>