<?xml version="1.0" encoding="UTF-8"?>
<svg version="1.1" xmlns="http://www.w3.org/2000/svg" width="500" height="500">
<path d="M0 0 C1.01211468 -0.00139248 1.01211468 -0.00139248 2.04467613 -0.0028131 C5.08201165 -0.0076459 8.11928209 -0.01585054 11.15659237 -0.02934647 C20.52909902 -0.05330927 29.85346613 0.35234574 39.20162964 1.00427246 C39.20162964 1.99427246 39.20162964 2.98427246 39.20162964 4.00427246 C37.80319214 5.36364746 37.80319214 5.36364746 35.82662964 6.75427246 C35.10475464 7.26731934 34.38287964 7.78036621 33.63912964 8.30895996 C32.43256714 9.14813965 32.43256714 9.14813965 31.20162964 10.00427246 C30.31475464 10.64622559 29.42787964 11.28817871 28.51412964 11.94958496 C21.47440292 17.00427246 21.47440292 17.00427246 19.20162964 17.00427246 C19.20162964 17.66427246 19.20162964 18.32427246 19.20162964 19.00427246 C17.22162964 19.49927246 17.22162964 19.49927246 15.20162964 20.00427246 C15.20162964 20.66427246 15.20162964 21.32427246 15.20162964 22.00427246 C13.57482839 22.83916207 11.94577158 23.66996583 10.30529213 24.47764778 C5.22401004 27.13347051 1.8203063 29.21576707 -0.10470581 34.78070068 C-0.72914676 39.41371469 -0.58837493 44.03837426 -0.44680786 48.69958496 C-0.44099184 50.41872206 -0.44023355 52.13788296 -0.4442749 53.85702515 C-0.4378625 57.44801021 -0.38424485 61.03406531 -0.29397583 64.62390137 C-0.18043909 69.21286491 -0.164272 73.79571124 -0.18079185 78.38585091 C-0.18640125 81.93126654 -0.15110852 85.47532978 -0.10252762 89.02038193 C-0.08218848 90.71148516 -0.07191194 92.40274192 -0.07212448 94.09396744 C-0.31110833 103.27780009 -0.31110833 103.27780009 2.98355103 111.53765869 C4.97394284 113.27889119 6.95641076 114.62138854 9.20162964 116.00427246 C16.39280205 124.52013452 15.51653756 136.00300822 15.45162964 146.56677246 C15.45936401 147.82940918 15.46709839 149.0920459 15.47506714 150.39294434 C15.45131201 161.76571215 14.50729883 170.02100516 7.20162964 179.00427246 C0.42775897 185.29429523 -6.25640416 186.27848822 -15.27493286 186.15661621 C-21.63764052 185.7724899 -26.81564336 184.12043825 -31.79837036 180.00427246 C-41.29541301 169.16673815 -40.98956558 157.92264957 -41.04837036 144.06677246 C-41.06899536 142.85569824 -41.08962036 141.64462402 -41.11087036 140.39685059 C-41.15314145 130.63751327 -40.12795674 121.76312028 -33.79837036 114.00427246 C-33.13837036 114.00427246 -32.47837036 114.00427246 -31.79837036 114.00427246 C-31.79837036 113.34427246 -31.79837036 112.68427246 -31.79837036 112.00427246 C-31.13837036 112.00427246 -30.47837036 112.00427246 -29.79837036 112.00427246 C-29.79837036 111.34427246 -29.79837036 110.68427246 -29.79837036 110.00427246 C-29.13837036 109.67427246 -28.47837036 109.34427246 -27.79837036 109.00427246 C-27.79837036 90.52427246 -27.79837036 72.04427246 -27.79837036 53.00427246 C-31.75837036 55.97427246 -35.71837036 58.94427246 -39.79837036 62.00427246 C-42.81611683 64.23786016 -45.83577962 66.46821574 -48.86087036 68.69177246 C-50.48848148 69.88967968 -52.11608542 71.08759666 -53.74368286 72.28552246 C-54.98166626 73.19624512 -54.98166626 73.19624512 -56.24465942 74.12536621 C-60.57634571 77.31242717 -64.90612661 80.50207328 -69.23587036 83.69177246 C-70.03452515 84.27982666 -70.83317993 84.86788086 -71.65603638 85.47375488 C-72.40296753 86.02394287 -73.14989868 86.57413086 -73.91946411 87.14099121 C-74.90064209 87.86355103 -74.90064209 87.86355103 -75.90164185 88.60070801 C-77.87370658 90.06002068 -79.83728016 91.53025397 -81.79837036 93.00427246 C-81.35106567 93.56372559 -80.90376099 94.12317871 -80.44290161 94.69958496 C-68.18207291 110.96021492 -67.6727476 129.3279726 -67.54837036 148.87927246 C-67.53894409 149.99584229 -67.52951782 151.11241211 -67.51980591 152.26281738 C-67.60693606 174.45799026 -75.00651272 191.5940588 -90.22415161 207.58239746 C-92.79837036 210.00427246 -92.79837036 210.00427246 -94.79837036 210.00427246 C-95.12837036 210.99427246 -95.45837036 211.98427246 -95.79837036 213.00427246 C-97.3484004 214.40017194 -98.96471275 215.72314265 -100.61087036 217.00427246 C-115.52507842 227.88195451 -115.52507842 227.88195451 -124.25930786 243.21520996 C-124.69784768 249.33388464 -122.61845695 253.36304577 -118.79837036 258.00427246 C-111.96750386 265.64193421 -104.0939921 272.07311796 -95.67337036 277.87927246 C-94.72462036 278.58052246 -93.77587036 279.28177246 -92.79837036 280.00427246 C-92.79837036 280.66427246 -92.79837036 281.32427246 -92.79837036 282.00427246 C-92.25696411 282.22856934 -91.71555786 282.45286621 -91.15774536 282.68395996 C-88.06064619 284.41710486 -85.61757642 286.71460204 -83.04837036 289.12927246 C-82.51687378 289.62572266 -81.9853772 290.12217285 -81.43777466 290.63366699 C-80.37318392 291.63167043 -79.3108773 292.63211667 -78.25100708 293.63513184 C-77.02969969 294.78623971 -75.79273952 295.92070822 -74.55227661 297.05114746 C-59.08455121 311.61632953 -49.55503426 331.89163034 -48.67337036 352.99645996 C-48.41518174 366.19635347 -50.39345251 378.56972577 -54.79837036 391.00427246 C-55.0961438 391.87696777 -55.39391724 392.74966309 -55.70071411 393.64880371 C-63.69292116 415.43014052 -82.71041042 432.02644878 -103.28640747 441.65710449 C-127.21009455 452.47371146 -153.61205742 456.43297637 -179.67337036 456.37927246 C-180.57545227 456.37939331 -181.47753418 456.37951416 -182.4069519 456.37963867 C-196.91225743 456.3520138 -210.63546619 455.34804469 -224.79837036 452.00427246 C-226.20201378 451.70087585 -227.60565945 451.39748972 -229.00930786 451.09411621 C-247.68213915 446.64728732 -270.79007993 436.5337488 -281.79837036 420.00427246 C-281.79837036 419.34427246 -281.79837036 418.68427246 -281.79837036 418.00427246 C-282.45837036 418.00427246 -283.11837036 418.00427246 -283.79837036 418.00427246 C-294.10150967 398.05876526 -300.63012409 378.71446725 -294.79837036 356.00427246 C-288.0624756 335.2204919 -275.10326467 320.32949425 -255.79837036 310.00427246 C-226.08247244 295.25235703 -193.5899415 291.5082655 -160.79837036 292.00427246 C-162.54249506 284.0886296 -164.63038807 279.58519669 -171.17727661 274.62927246 C-173.9104057 271.88955752 -174.72286407 268.95622011 -175.02542114 265.14172363 C-175.00971069 263.60995483 -175.00971069 263.60995483 -174.99368286 262.04724121 C-174.98401489 260.3795166 -174.98401489 260.3795166 -174.97415161 258.67810059 C-174.94901489 256.95236816 -174.94901489 256.95236816 -174.92337036 255.19177246 C-174.91434692 254.02194824 -174.90532349 252.85212402 -174.89602661 251.64685059 C-174.87250768 248.76578193 -174.83963888 245.88513257 -174.79837036 243.00427246 C-175.49172485 243.02521973 -176.18507935 243.04616699 -176.89944458 243.06774902 C-202.76993286 243.74348669 -226.12755741 240.71766212 -246.79837036 224.00427246 C-247.78837036 223.34427246 -248.77837036 222.68427246 -249.79837036 222.00427246 C-249.79837036 221.34427246 -249.79837036 220.68427246 -249.79837036 220.00427246 C-250.45837036 220.00427246 -251.11837036 220.00427246 -251.79837036 220.00427246 C-253.68112659 217.87645907 -255.4395989 215.74894562 -257.17337036 213.50427246 C-257.67360718 212.85716309 -258.17384399 212.21005371 -258.6892395 211.54333496 C-269.79153182 196.95269251 -273.20118515 178.70473565 -273.11087036 160.62927246 C-273.1088562 159.53671143 -273.10684204 158.44415039 -273.10476685 157.31848145 C-273.0013327 148.99977457 -272.59174415 140.59102004 -268.79837036 133.00427246 C-269.50128928 133.01034799 -270.2042082 133.01642351 -270.9284277 133.02268314 C-288.05589037 133.17035082 -305.18339198 133.31207457 -322.31095791 133.44723606 C-330.59381702 133.51274227 -338.87665089 133.58023774 -347.15945435 133.65246582 C-354.38128256 133.71543684 -361.60313035 133.77462491 -368.82502609 133.829328 C-372.6466347 133.85840581 -376.46820741 133.88933873 -380.2897625 133.92480659 C-383.89215028 133.95818047 -387.49454338 133.98646778 -391.09700203 134.0109787 C-393.03834111 134.02547577 -394.97963854 134.04525431 -396.92092896 134.06523132 C-403.30965366 134.10355463 -409.46652924 133.87062275 -415.79837036 133.00427246 C-409.43586524 126.21860786 -401.07311031 121.57982856 -392.93508911 117.21130371 C-390.67752587 115.93600747 -388.56221725 114.53178794 -386.42337036 113.06677246 C-383.27108932 110.91724382 -380.07799898 109.03501508 -376.70462036 107.25427246 C-370.84289405 104.08647298 -365.25981459 100.56785405 -359.67337036 96.94177246 C-353.85207915 93.17051756 -348.03522899 89.50927907 -341.94290161 86.19104004 C-338.34636508 84.20074358 -334.85851238 82.03719867 -331.36087036 79.87927246 C-329.78276287 78.91049394 -328.20463735 77.94174479 -326.62649536 76.97302246 C-325.82792114 76.48188965 -325.02934692 75.99075684 -324.20657349 75.48474121 C-320.3447635 73.11065202 -316.47831461 70.7441694 -312.61087036 68.37927246 C-311.86136108 67.92084961 -311.11185181 67.46242676 -310.33963013 66.9901123 C-305.67247116 64.13906151 -300.99187555 61.31170832 -296.29837036 58.50427246 C-284.16528508 51.24416568 -272.12528612 43.83376503 -260.11087036 36.37927246 C-253.42705456 32.23239274 -246.72120261 28.12880871 -239.96633911 24.09875488 C-236.16135507 21.82755073 -232.37953156 19.52270613 -228.61087036 17.19177246 C-227.58264664 16.5888739 -226.55442291 15.98597534 -225.49504089 15.36480713 C-222.87375804 13.77167135 -220.59764616 12.01917552 -218.27516174 10.01922607 C-201.87814232 -3.03643163 -181.56924212 -0.64192976 -161.75319219 -0.41438389 C-156.48838258 -0.36688732 -151.22381961 -0.38850075 -145.95887756 -0.40216064 C-135.98503591 -0.41779958 -126.01245069 -0.37283145 -116.03886265 -0.30533862 C-104.79228933 -0.23212405 -93.54601101 -0.22621254 -82.29923642 -0.22636843 C-62.86422071 -0.22536169 -43.42996063 -0.16934739 -23.99524021 -0.0649147 C-15.99673107 -0.02278535 -7.99863399 0.01245943 0 0 Z M-206.54837036 92.37927246 C-219.35844335 107.32435761 -224.61167596 123.80096251 -223.61087036 143.44177246 C-221.21972736 169.25524809 -212.33052654 192.1323423 -192.09524536 209.29724121 C-185.96559513 213.85687367 -180.14643401 216.89631903 -172.79837036 219.00427246 C-171.80837036 219.29237793 -171.80837036 219.29237793 -170.79837036 219.58630371 C-159.64020265 221.91818642 -148.47109234 218.79682513 -139.07962036 212.71911621 C-127.71873579 204.17899921 -122.73870795 190.47542267 -119.79837036 177.00427246 C-119.25850657 172.09174279 -119.17740334 167.25562951 -119.23587036 162.31677246 C-119.2453772 161.01111328 -119.25488403 159.7054541 -119.26467896 158.36022949 C-119.59822851 142.74895353 -123.10703471 129.55996961 -130.79837036 116.00427246 C-131.47309461 114.67499844 -132.14291035 113.3431505 -132.79837036 112.00427246 C-133.45837036 112.00427246 -134.11837036 112.00427246 -134.79837036 112.00427246 C-135.20055786 110.89052246 -135.20055786 110.89052246 -135.61087036 109.75427246 C-136.75113787 107.11365297 -137.89217342 105.14874402 -139.79837036 103.00427246 C-140.45837036 103.00427246 -141.11837036 103.00427246 -141.79837036 103.00427246 C-142.18508911 102.11868652 -142.18508911 102.11868652 -142.57962036 101.21520996 C-147.30629271 92.64054153 -159.12621812 86.25369015 -168.25149536 83.53552246 C-183.27668861 80.40143307 -194.8449547 82.27177712 -206.54837036 92.37927246 Z M-234.79837036 335.00427246 C-242.75650015 343.56601289 -250.5940131 354.94719388 -250.79837036 367.00427246 C-250.84606567 367.6836084 -250.89376099 368.36294434 -250.94290161 369.06286621 C-251.60247423 382.76731952 -245.60464273 393.89604606 -236.79837036 404.00427246 C-236.13837036 404.00427246 -235.47837036 404.00427246 -234.79837036 404.00427246 C-234.79837036 404.66427246 -234.79837036 405.32427246 -234.79837036 406.00427246 C-234.13837036 406.00427246 -233.47837036 406.00427246 -232.79837036 406.00427246 C-232.79837036 406.66427246 -232.79837036 407.32427246 -232.79837036 408.00427246 C-223.43410685 416.04262256 -212.27543089 420.75898485 -200.61087036 424.31677246 C-199.36394409 424.69877808 -199.36394409 424.69877808 -198.09182739 425.08850098 C-176.24838355 431.4474087 -152.91375257 428.3833925 -131.79837036 421.00427246 C-130.18381958 420.44933105 -130.18381958 420.44933105 -128.53665161 419.88317871 C-120.57994622 416.87731223 -114.33061682 412.39470349 -107.79837036 407.00427246 C-106.90891724 406.2914209 -106.01946411 405.57856934 -105.10305786 404.84411621 C-95.55420932 396.79913831 -86.81336131 385.53706915 -85.57962036 372.73425293 C-84.503154 355.40650849 -88.38495497 345.4640825 -99.41555786 332.03552246 C-112.06227658 318.19334277 -133.44687834 310.27801405 -151.79837036 309.00427246 C-181.30763455 307.86307214 -213.0254228 312.92680815 -234.79837036 335.00427246 Z " fill="#050505" transform="translate(430.7983703613281,25.9957275390625)"/>
<path d="M0 0 C2.475 0.495 2.475 0.495 5 1 C5.04629055 8.7884635 5.08185242 16.57689492 5.10362434 24.36546135 C5.11407249 27.98180873 5.12825032 31.59806216 5.15087891 35.21435547 C5.1725708 38.70268811 5.18456085 42.19093024 5.18975449 45.6793251 C5.19526169 47.66139971 5.21088034 49.64343779 5.22659302 51.62545776 C5.22674408 52.82655182 5.22689514 54.02764587 5.22705078 55.26513672 C5.231492 56.32658905 5.23593323 57.38804138 5.24050903 58.48165894 C5 61 5 61 3 63 C2.34 62.67 1.68 62.34 1 62 C1 61.34 1 60.68 1 60 C1.99 59.505 1.99 59.505 3 59 C3 40.52 3 22.04 3 3 C2.01 3.33 1.02 3.66 0 4 C0 2.68 0 1.36 0 0 Z " fill="#4E4C4D" transform="translate(400,76)"/>
<path d="M0 0 C0.66 0.33 1.32 0.66 2 1 C1.67 1.66 1.34 2.32 1 3 C2.051875 2.98259766 2.051875 2.98259766 3.125 2.96484375 C8.86113102 2.91028816 14.32778253 3.14381623 20 4 C20 4.33 20 4.66 20 5 C11.92138585 5.09579384 4.01659634 5.12513633 -4 4 C-2.68 2.68 -1.36 1.36 0 0 Z " fill="#747272" transform="translate(19,155)"/>
<path d="M0 0 C0.66 0.33 1.32 0.66 2 1 C0.75023244 4.65316671 0.32901247 5.78065836 -3 8 C-3.66 8.66 -4.32 9.32 -5 10 C-5 9.34 -5 8.68 -5 8 C-5.99 7.67 -6.98 7.34 -8 7 C-5.36 4.69 -2.72 2.38 0 0 Z " fill="#4E4D4D" transform="translate(161,345)"/>
<path d="M0 0 C0.33 0 0.66 0 1 0 C1.05786668 3.79160297 1.09355054 7.58309311 1.125 11.375 C1.14175781 12.45523438 1.15851563 13.53546875 1.17578125 14.6484375 C1.18222656 15.6796875 1.18867188 16.7109375 1.1953125 17.7734375 C1.20578613 18.72653809 1.21625977 19.67963867 1.22705078 20.66162109 C1 23 1 23 -1 25 C-1.66 24.67 -2.32 24.34 -3 24 C-3 23.34 -3 22.68 -3 22 C-2.34 21.67 -1.68 21.34 -1 21 C-0.67 14.07 -0.34 7.14 0 0 Z " fill="#585354" transform="translate(404,114)"/>
<path d="M0 0 C0.66 0 1.32 0 2 0 C2 1.32 2 2.64 2 4 C1.34 4 0.68 4 0 4 C-0.33 4.99 -0.66 5.98 -1 7 C-3.475 6.01 -3.475 6.01 -6 5 C-5.195625 4.360625 -4.39125 3.72125 -3.5625 3.0625 C-1.7249496 1.59396498 -1.7249496 1.59396498 0 0 Z " fill="#353333" transform="translate(117,95)"/>
<path d="M0 0 C0.33 0 0.66 0 1 0 C1.06058594 0.88042969 1.12117188 1.76085937 1.18359375 2.66796875 C1.26738281 3.82941406 1.35117187 4.99085938 1.4375 6.1875 C1.51871094 7.33605469 1.59992188 8.48460937 1.68359375 9.66796875 C1.95403812 12.51598171 2.37521747 15.21210482 3 18 C1.51171875 16.98046875 1.51171875 16.98046875 0 15 C-0.2172101 12.35003674 -0.28351554 9.94923442 -0.1875 7.3125 C-0.17396484 6.61060547 -0.16042969 5.90871094 -0.14648438 5.18554688 C-0.11120182 3.45670171 -0.05739583 1.72825235 0 0 Z " fill="#2B2728" transform="translate(257,282)"/>
<path d="M0 0 C-1.39332574 3.36720387 -2.9789286 4.9859524 -6 7 C-6.99 6.34 -7.98 5.68 -9 5 C-7.87926138 4.16094435 -6.75325453 3.32892169 -5.625 2.5 C-4.99851563 2.0359375 -4.37203125 1.571875 -3.7265625 1.09375 C-2 0 -2 0 0 0 Z " fill="#424142" transform="translate(199,46)"/>
<path d="M0 0 C0.66 0.33 1.32 0.66 2 1 C0.625 3 0.625 3 -1 5 C-1.66 5 -2.32 5 -3 5 C-4.34882408 5.63474075 -5.6846659 6.29848848 -7 7 C-7.33 6.34 -7.66 5.68 -8 5 C-6.71475739 4.13619741 -5.42157581 3.28419631 -4.125 2.4375 C-3.04605469 1.72400391 -3.04605469 1.72400391 -1.9453125 0.99609375 C-1.30335938 0.66738281 -0.66140625 0.33867188 0 0 Z " fill="#504E4F" transform="translate(215,35)"/>
<path d="M0 0 C0.99 0.33 1.98 0.66 3 1 C2.4225 1.2475 1.845 1.495 1.25 1.75 C-1.3002997 3.16683317 -3.01785701 4.87627537 -5 7 C-5.66 6.34 -6.32 5.68 -7 5 C-5.90554162 4.13342884 -4.79902219 3.28207276 -3.6875 2.4375 C-3.07261719 1.96183594 -2.45773438 1.48617188 -1.82421875 0.99609375 C-1.22222656 0.66738281 -0.62023437 0.33867187 0 0 Z " fill="#535152" transform="translate(170,339)"/>
<path d="M0 0 C-1.22934015 3.68802044 -2.93859378 4.72356973 -6 7 C-6 6.34 -6 5.68 -6 5 C-6.66 4.67 -7.32 4.34 -8 4 C-2.25 0 -2.25 0 0 0 Z " fill="#535051" transform="translate(73,123)"/>
<path d="M0 0 C0.66 0 1.32 0 2 0 C1.8125 2.3125 1.8125 2.3125 1 5 C-1.5625 6.8125 -1.5625 6.8125 -4 8 C-2.87548273 5.0280615 -1.77706209 2.66559313 0 0 Z " fill="#605859" transform="translate(397,140)"/>
<path d="M0 0 C2.64 0.66 5.28 1.32 8 2 C7.01 2.33 6.02 2.66 5 3 C4.67 3.66 4.34 4.32 4 5 C3.34 5 2.68 5 2 5 C2 4.34 2 3.68 2 3 C1.34 2.67 0.68 2.34 0 2 C0 1.34 0 0.68 0 0 Z " fill="#595757" transform="translate(224,448)"/>
<path d="M0 0 C0.66 0.99 1.32 1.98 2 3 C0.35 4.32 -1.3 5.64 -3 7 C-3.66 6.34 -4.32 5.68 -5 5 C-3.35 3.35 -1.7 1.7 0 0 Z " fill="#585757" transform="translate(331,425)"/>
</svg>
