<svg viewBox="0 0 14 14" xmlns="http://www.w3.org/2000/svg"><path d="m1 1v12h12v-12zm7.0232143 8.95714c-.1767857.08036-.8892857.16072-1.3392857-.38035-.2464286-.28393-.6776786-.89197-1.1303572-1.70358-.2383928 0-.39375 0-.5732143-.0161v1.24286c0 .62946.1607143.56786.6910715.64018v.21696c-.1848215-.008-.61875-.0214-.9535715-.0214-.3508928 0-.6991071.0161-.9.0214v-.21696c.4151786-.0777.5892858-.0348.5892858-.64018v-2.93036c0-.60535-.1714286-.5625-.5892858-.64018v-.21696c.6910715.0268 1.4223215-.0161 1.8991072-.0161.8491071 0 1.4973214.38571 1.4973214 1.22143 0 .56518-.4473214 1.13035-1.05 1.27232.3642857.64821.8035714 1.22143 1.1303572 1.57768.1928571.20893.4607142.39375.7285714.39375v.19553zm.6133928-3.61607c-.6241071 0-.8625-.42053-.8625-.8625v-.8625c0-.32678.2357143-.81428.9107143-.81428s.8142857.47946.8142857.47946l-.2866071.19286s-.1473214-.33482-.5276786-.33482c-.2116071 0-.5276785.19553-.5276785.52767v.71786c0 .35893.1767857.62411.4794642.62411.3776786 0 .5758929-.29197.5758929-.71786h-.4794643v-.28661h.8142857c0 .54911.1258929 1.33661-.9107143 1.33661zm-3.1205357 1.19732c-.2517857 0-.3642857-.008-.5357143-.0214v-1.86696c.1714286-.0161.4017858-.0161.6026786-.0161.6241072 0 .9964286.32678.9964286.92411 0 .5866-.4017857.98035-1.0633929.98035z"/></svg>