<?xml version="1.0" standalone="no"?>
<!DOCTYPE svg PUBLIC "-//W3C//DTD SVG 20010904//EN"
 "http://www.w3.org/TR/2001/REC-SVG-20010904/DTD/svg10.dtd">
<svg version="1.0" xmlns="http://www.w3.org/2000/svg"
 width="500.000000pt" height="500.000000pt" viewBox="0 0 500.000000 500.000000"
 preserveAspectRatio="xMidYMid meet">
<metadata>
Created by potrace 1.16, written by Peter Selinger 2001-2019
</metadata>
<g transform="translate(0.000000,500.000000) scale(0.100000,-0.100000)"
fill="#000000" stroke="none">
<path d="M3760 4687 c-131 -41 -208 -85 -286 -162 -84 -84 -106 -118 -138
-216 -35 -109 -46 -225 -46 -504 0 -284 10 -397 45 -508 54 -169 216 -316 419
-379 96 -30 300 -32 391 -4 226 70 385 215 446 406 19 56 22 98 26 312 l6 247
-322 0 -321 1 0 -120 0 -120 175 0 175 0 6 -26 c4 -14 3 -53 0 -87 -21 -185
-73 -272 -201 -335 -129 -64 -234 -62 -370 4 -128 62 -169 158 -184 431 -10
180 1 483 20 557 27 109 92 192 185 237 63 30 69 31 182 27 99 -2 124 -7 162
-26 62 -32 138 -108 161 -159 10 -24 20 -43 22 -43 4 0 120 47 162 65 17 8 45
16 63 20 17 4 32 12 32 19 0 15 -57 110 -90 151 -43 53 -133 134 -154 141 -12
4 -27 11 -35 17 -7 6 -18 12 -25 13 -6 2 -36 12 -66 24 -72 28 -92 31 -240 36
-110 3 -134 1 -200 -19z"/>
<path d="M1315 3650 c-115 -4 -357 -8 -536 -9 l-327 -1 -4 -22 c-2 -13 -2 -48
0 -80 l4 -56 121 -22 c137 -25 196 -49 232 -92 31 -37 60 -139 66 -238 2 -30
4 -554 3 -1165 0 -852 -3 -1123 -13 -1165 -7 -30 -14 -65 -17 -77 -6 -32 -61
-91 -103 -113 -20 -10 -91 -29 -156 -41 -66 -13 -123 -28 -127 -33 -4 -6 -8
-40 -8 -76 l0 -65 675 -1 675 0 0 76 0 77 -57 6 c-285 31 -348 52 -390 130
-38 71 -42 127 -42 655 l-1 512 200 0 200 0 25 -40 c14 -22 40 -67 58 -99 119
-218 350 -565 530 -796 21 -27 63 -82 92 -121 61 -81 212 -244 226 -244 5 0
35 -18 67 -39 143 -98 300 -143 507 -145 115 -1 185 6 248 24 l37 11 0 74 0
75 -38 0 c-36 0 -153 33 -222 64 -34 14 -165 95 -185 114 -35 32 -167 176
-205 222 -25 31 -54 65 -65 76 -12 11 -34 38 -50 59 -16 22 -45 58 -65 81 -62
71 -78 92 -91 116 -7 12 -32 47 -56 77 -42 52 -166 232 -227 329 -16 26 -53
85 -82 132 -59 94 -60 90 26 116 30 9 69 21 85 27 31 11 171 93 191 112 7 5
35 28 63 50 104 81 221 241 276 380 47 116 70 284 56 395 -16 116 -30 175 -58
239 -25 58 -86 156 -104 167 -6 3 -13 14 -17 24 -4 10 -49 52 -100 93 -126
101 -288 169 -507 213 -95 19 -482 26 -810 14z m561 -250 c115 -20 220 -52
281 -86 123 -68 243 -221 264 -336 33 -186 34 -252 8 -373 -15 -67 -49 -156
-67 -178 -8 -9 -20 -26 -26 -36 -23 -40 -82 -109 -106 -125 -123 -79 -158 -98
-222 -120 -134 -45 -389 -57 -645 -30 l-63 7 0 637 c0 350 3 640 7 643 10 11
504 8 569 -3z"/>
</g>
</svg>
